<svg xmlns="http://www.w3.org/2000/svg" viewBox="0 0 512 512" width="512" height="512"><defs><radialGradient id="bg" gradientUnits="userSpaceOnUse" cx="256" cy="0" r="614.4"><stop offset="0" stop-color="#13233b"></stop><stop offset="0.6" stop-color="#0b1220"></stop></radialGradient><filter id="cardShadow" x="-30%" y="-30%" width="160%" height="160%"><feDropShadow dx="0" dy="8" stdDeviation="10" flood-color="#000000" flood-opacity="0.42"></feDropShadow></filter></defs><rect x="0" y="0" width="512" height="512" rx="81.92" fill="url(#bg)"></rect><g transform="translate(256 256) scale(1) translate(-256 -256)"><g transform="translate(256 470) rotate(-18) translate(0 -200)" filter="url(#cardShadow)"><svg x="-102" y="-142.79999999999998" width="204" height="285.59999999999997" viewBox="0 0 120 168"><rect x="0.5" y="0.5" width="119" height="167" rx="12" ry="12" fill="#f7f7f7" stroke="#8496ad" stroke-width="1"></rect><text x="5" y="38" font-size="40" font-weight="600" font-family="Libre Franklin, sans-serif" fill="#0f172a">9<tspan x="106" y="34" text-anchor="end" font-size="26" font-family="Pip Suits">♣</tspan></text><text x="60" y="105.08" text-anchor="middle" font-size="68" font-family="Pip Suits" fill="#0f172a">♣</text><text x="5" y="38" font-size="40" font-weight="600" font-family="Libre Franklin, sans-serif" fill="#0f172a" transform="rotate(180 60 84)">9<tspan x="106" y="34" text-anchor="end" font-size="26" font-family="Pip Suits">♣</tspan></text></svg></g><g transform="translate(256 470) rotate(0) translate(0 -200)" filter="url(#cardShadow)"><svg x="-102" y="-142.79999999999998" width="204" height="285.59999999999997" viewBox="0 0 120 168"><rect x="0.5" y="0.5" width="119" height="167" rx="12" ry="12" fill="#f7f7f7" stroke="#8496ad" stroke-width="1"></rect><text x="5" y="38" font-size="40" font-weight="600" font-family="Libre Franklin, sans-serif" fill="#991b1b">8<tspan x="106" y="34" text-anchor="end" font-size="26" font-family="Pip Suits">♥</tspan></text><text x="60" y="105.08" text-anchor="middle" font-size="68" font-family="Pip Suits" fill="#991b1b">♥</text><text x="5" y="38" font-size="40" font-weight="600" font-family="Libre Franklin, sans-serif" fill="#991b1b" transform="rotate(180 60 84)">8<tspan x="106" y="34" text-anchor="end" font-size="26" font-family="Pip Suits">♥</tspan></text></svg></g><g transform="translate(256 470) rotate(18) translate(0 -200)" filter="url(#cardShadow)"><svg x="-102" y="-142.79999999999998" width="204" height="285.59999999999997" viewBox="0 0 120 168"><rect x="0.5" y="0.5" width="119" height="167" rx="12" ry="12" fill="#f7f7f7" stroke="#8496ad" stroke-width="1"></rect><text x="5" y="38" font-size="40" font-weight="600" font-family="Libre Franklin, sans-serif" fill="#0f172a">7<tspan x="106" y="34" text-anchor="end" font-size="26" font-family="Pip Suits">♠</tspan></text><text x="60" y="105.08" text-anchor="middle" font-size="68" font-family="Pip Suits" fill="#0f172a">♠</text><text x="5" y="38" font-size="40" font-weight="600" font-family="Libre Franklin, sans-serif" fill="#0f172a" transform="rotate(180 60 84)">7<tspan x="106" y="34" text-anchor="end" font-size="26" font-family="Pip Suits">♠</tspan></text></svg></g></g></svg>